<?xml version="1.0" encoding="UTF-8" standalone="no"?>
<!DOCTYPE svg PUBLIC "-//W3C//DTD SVG 1.1//EN"
 "http://www.w3.org/Graphics/SVG/1.1/DTD/svg11.dtd">
<!-- Generated by graphviz version 2.40.1 (20161225.0304)
 -->
<!-- Title: dependencies Pages: 1 -->
<svg width="1111pt" height="211pt"
 viewBox="0.00 0.00 1111.00 211.00" xmlns="http://www.w3.org/2000/svg" xmlns:xlink="http://www.w3.org/1999/xlink">
<g id="graph0" class="graph" transform="scale(1 1) rotate(0) translate(4 207)">
<title>dependencies</title>
<polygon fill="#ffffff" stroke="transparent" points="-4,4 -4,-207 1107,-207 1107,4 -4,4"/>
<text text-anchor="start" x="530.5091" y="-42.4" font-family="sans-serif" font-weight="bold" font-size="14.00" fill="#000000">Legend</text>
<polygon fill="#ffffb3" stroke="transparent" points="317.5,-10 317.5,-30 337.5,-30 337.5,-10 317.5,-10"/>
<text text-anchor="start" x="341.129" y="-15.4" font-family="sans-serif" font-size="14.00" fill="#000000"> &#160;Declarations</text>
<polygon fill="#8dd3c7" stroke="transparent" points="430.5,-10 430.5,-30 450.5,-30 450.5,-10 430.5,-10"/>
<text text-anchor="start" x="454.2251" y="-15.4" font-family="sans-serif" font-size="14.00" fill="#000000"> &#160;Module</text>
<polygon fill="#80b1d3" stroke="transparent" points="516.5,-10 516.5,-30 536.5,-30 536.5,-10 516.5,-10"/>
<text text-anchor="start" x="540.2812" y="-15.4" font-family="sans-serif" font-size="14.00" fill="#000000"> &#160;Bootstrap</text>
<polygon fill="#fdb462" stroke="transparent" points="613.5,-10 613.5,-30 633.5,-30 633.5,-10 613.5,-10"/>
<text text-anchor="start" x="637.1732" y="-15.4" font-family="sans-serif" font-size="14.00" fill="#000000"> &#160;Providers</text>
<polygon fill="#fb8072" stroke="transparent" points="709.5,-10 709.5,-30 729.5,-30 729.5,-10 709.5,-10"/>
<text text-anchor="start" x="733.2258" y="-15.4" font-family="sans-serif" font-size="14.00" fill="#000000"> &#160;Exports</text>
<g id="clust1" class="cluster">
<title>cluster_BooksModule</title>
<polygon fill="none" stroke="#000000" stroke-dasharray="1,5" points="8,-70 8,-195 1095,-195 1095,-70 8,-70"/>
</g>
<g id="clust2" class="cluster">
<title>cluster_BooksModule_declarations</title>
<polygon fill="none" stroke="#000000" points="330,-78 330,-130 1087,-130 1087,-78 330,-78"/>
</g>
<g id="clust7" class="cluster">
<title>cluster_BooksModule_imports</title>
<polygon fill="none" stroke="#000000" points="200,-78 200,-130 322,-130 322,-78 200,-78"/>
</g>
<g id="clust10" class="cluster">
<title>cluster_BooksModule_providers</title>
<polygon fill="none" stroke="#000000" points="16,-78 16,-130 192,-130 192,-78 16,-78"/>
</g>
<!-- CollectionPageComponent -->
<g id="node1" class="node">
<title>CollectionPageComponent</title>
<polygon fill="#ffffb3" stroke="#000000" points="1079.3724,-122 912.6276,-122 912.6276,-86 1079.3724,-86 1079.3724,-122"/>
<text text-anchor="middle" x="996" y="-99.8" font-family="Times,serif" font-size="14.00" fill="#000000">CollectionPageComponent</text>
</g>
<!-- BooksModule -->
<g id="node5" class="node">
<title>BooksModule</title>
<polygon fill="#8dd3c7" stroke="#000000" points="568.8316,-187 565.8316,-191 544.8316,-191 541.8316,-187 473.1684,-187 473.1684,-151 568.8316,-151 568.8316,-187"/>
<text text-anchor="middle" x="521" y="-164.8" font-family="Times,serif" font-size="14.00" fill="#000000">BooksModule</text>
</g>
<!-- CollectionPageComponent&#45;&gt;BooksModule -->
<g id="edge1" class="edge">
<title>CollectionPageComponent&#45;&gt;BooksModule</title>
<path fill="none" stroke="#000000" d="M996,-122.2843C996,-143.3211 996,-175 996,-175 996,-175 578.7196,-175 578.7196,-175"/>
<polygon fill="#000000" stroke="#000000" points="578.7197,-171.5001 568.7196,-175 578.7196,-178.5001 578.7197,-171.5001"/>
</g>
<!-- FindBookPageComponent -->
<g id="node2" class="node">
<title>FindBookPageComponent</title>
<polygon fill="#ffffb3" stroke="#000000" points="894.0546,-122 729.9454,-122 729.9454,-86 894.0546,-86 894.0546,-122"/>
<text text-anchor="middle" x="812" y="-99.8" font-family="Times,serif" font-size="14.00" fill="#000000">FindBookPageComponent</text>
</g>
<!-- FindBookPageComponent&#45;&gt;BooksModule -->
<g id="edge2" class="edge">
<title>FindBookPageComponent&#45;&gt;BooksModule</title>
<path fill="none" stroke="#000000" d="M812,-122.0225C812,-139.3734 812,-163 812,-163 812,-163 578.7269,-163 578.7269,-163"/>
<polygon fill="#000000" stroke="#000000" points="578.7269,-159.5001 568.7269,-163 578.7268,-166.5001 578.7269,-159.5001"/>
</g>
<!-- SelectedBookPageComponent -->
<g id="node3" class="node">
<title>SelectedBookPageComponent</title>
<polygon fill="#ffffb3" stroke="#000000" points="712.3032,-122 525.6968,-122 525.6968,-86 712.3032,-86 712.3032,-122"/>
<text text-anchor="middle" x="619" y="-99.8" font-family="Times,serif" font-size="14.00" fill="#000000">SelectedBookPageComponent</text>
</g>
<!-- SelectedBookPageComponent&#45;&gt;BooksModule -->
<g id="edge3" class="edge">
<title>SelectedBookPageComponent&#45;&gt;BooksModule</title>
<path fill="none" stroke="#000000" d="M547.257,-122.1061C547.257,-122.1061 547.257,-140.991 547.257,-140.991"/>
<polygon fill="#000000" stroke="#000000" points="543.7571,-140.9909 547.257,-150.991 550.7571,-140.991 543.7571,-140.9909"/>
</g>
<!-- ViewBookPageComponent -->
<g id="node4" class="node">
<title>ViewBookPageComponent</title>
<polygon fill="#ffffb3" stroke="#000000" points="507.6993,-122 338.3007,-122 338.3007,-86 507.6993,-86 507.6993,-122"/>
<text text-anchor="middle" x="423" y="-99.8" font-family="Times,serif" font-size="14.00" fill="#000000">ViewBookPageComponent</text>
</g>
<!-- ViewBookPageComponent&#45;&gt;BooksModule -->
<g id="edge4" class="edge">
<title>ViewBookPageComponent&#45;&gt;BooksModule</title>
<path fill="none" stroke="#000000" d="M490.4671,-122.1061C490.4671,-122.1061 490.4671,-140.991 490.4671,-140.991"/>
<polygon fill="#000000" stroke="#000000" points="486.9671,-140.9909 490.4671,-150.991 493.9671,-140.991 486.9671,-140.9909"/>
</g>
<!-- MaterialModule -->
<g id="node6" class="node">
<title>MaterialModule</title>
<polygon fill="#8dd3c7" stroke="#000000" points="314.4706,-122 311.4706,-126 290.4706,-126 287.4706,-122 207.5294,-122 207.5294,-86 314.4706,-86 314.4706,-122"/>
<text text-anchor="middle" x="261" y="-99.8" font-family="Times,serif" font-size="14.00" fill="#000000">MaterialModule</text>
</g>
<!-- MaterialModule&#45;&gt;BooksModule -->
<g id="edge5" class="edge">
<title>MaterialModule&#45;&gt;BooksModule</title>
<path fill="none" stroke="#000000" d="M261,-122.0225C261,-139.3734 261,-163 261,-163 261,-163 463.312,-163 463.312,-163"/>
<polygon fill="#000000" stroke="#000000" points="463.312,-166.5001 473.312,-163 463.312,-159.5001 463.312,-166.5001"/>
</g>
<!-- BookExistsGuard -->
<g id="node7" class="node">
<title>BookExistsGuard</title>
<ellipse fill="#fdb462" stroke="#000000" cx="104" cy="-104" rx="79.8972" ry="18"/>
<text text-anchor="middle" x="104" y="-99.8" font-family="Times,serif" font-size="14.00" fill="#000000">BookExistsGuard</text>
</g>
<!-- BookExistsGuard&#45;&gt;BooksModule -->
<g id="edge6" class="edge">
<title>BookExistsGuard&#45;&gt;BooksModule</title>
<path fill="none" stroke="#000000" d="M104,-122.2843C104,-143.3211 104,-175 104,-175 104,-175 463.1648,-175 463.1648,-175"/>
<polygon fill="#000000" stroke="#000000" points="463.1648,-178.5001 473.1648,-175 463.1648,-171.5001 463.1648,-178.5001"/>
</g>
</g>
</svg>
